<mxfile host="app.diagrams.net" modified="2023-10-25T08:18:56.809Z" agent="Mozilla/5.0 (Windows NT 10.0; Win64; x64) AppleWebKit/537.36 (KHTML, like Gecko) Chrome/118.0.0.0 Safari/537.36" etag="Opn6oa4QmpSl9Lc-raqT" version="22.0.7" type="github">
  <diagram name="Strona-1" id="TaUs909sIrKVQtQASKZH">
    <mxGraphModel dx="3247" dy="1816" grid="1" gridSize="10" guides="1" tooltips="1" connect="1" arrows="1" fold="1" page="1" pageScale="1" pageWidth="827" pageHeight="1169" math="0" shadow="0">
      <root>
        <mxCell id="0" />
        <mxCell id="1" parent="0" />
        <mxCell id="eVUaobwBK6fa_ifXyKKY-1" value="" style="shape=cube;whiteSpace=wrap;html=1;boundedLbl=1;backgroundOutline=1;darkOpacity=0.05;darkOpacity2=0.1;direction=east;flipH=1;size=220;labelBackgroundColor=none;fillColor=#bac8d3;strokeColor=#23445d;" vertex="1" parent="1">
          <mxGeometry x="-330" y="240" width="220" height="610" as="geometry" />
        </mxCell>
        <mxCell id="eVUaobwBK6fa_ifXyKKY-2" value="" style="shape=cube;whiteSpace=wrap;html=1;boundedLbl=1;backgroundOutline=1;darkOpacity=0.05;darkOpacity2=0.1;direction=east;flipH=1;size=220;labelBackgroundColor=none;fillColor=#1ba1e2;strokeColor=#006EAF;fontColor=#ffffff;" vertex="1" parent="1">
          <mxGeometry x="-300" y="240" width="240" height="610" as="geometry" />
        </mxCell>
        <mxCell id="eVUaobwBK6fa_ifXyKKY-3" value="" style="shape=cube;whiteSpace=wrap;html=1;boundedLbl=1;backgroundOutline=1;darkOpacity=0.05;darkOpacity2=0.1;direction=east;flipH=1;size=130;labelBackgroundColor=none;fillColor=#60a917;strokeColor=#2D7600;fontColor=#ffffff;" vertex="1" parent="1">
          <mxGeometry x="-230" y="560" width="190" height="450" as="geometry" />
        </mxCell>
        <mxCell id="eVUaobwBK6fa_ifXyKKY-4" value="" style="shape=cube;whiteSpace=wrap;html=1;boundedLbl=1;backgroundOutline=1;darkOpacity=0.05;darkOpacity2=0.1;direction=east;flipH=1;size=130;labelBackgroundColor=none;fillColor=#1ba1e2;strokeColor=#006EAF;fontColor=#ffffff;" vertex="1" parent="1">
          <mxGeometry x="-147" y="560" width="190" height="450" as="geometry" />
        </mxCell>
        <mxCell id="eVUaobwBK6fa_ifXyKKY-5" value="" style="shape=cube;whiteSpace=wrap;html=1;boundedLbl=1;backgroundOutline=1;darkOpacity=0.05;darkOpacity2=0.1;direction=east;flipH=1;size=80;labelBackgroundColor=none;fillColor=#60a917;strokeColor=#2D7600;fontColor=#ffffff;" vertex="1" parent="1">
          <mxGeometry x="-50" y="785" width="190" height="250" as="geometry" />
        </mxCell>
        <mxCell id="eVUaobwBK6fa_ifXyKKY-6" value="" style="shape=cube;whiteSpace=wrap;html=1;boundedLbl=1;backgroundOutline=1;darkOpacity=0.05;darkOpacity2=0.1;direction=east;flipH=1;size=80;labelBackgroundColor=none;fillColor=#1ba1e2;strokeColor=#006EAF;fontColor=#ffffff;" vertex="1" parent="1">
          <mxGeometry x="80" y="790" width="190" height="250" as="geometry" />
        </mxCell>
        <mxCell id="eVUaobwBK6fa_ifXyKKY-7" value="" style="shape=cube;whiteSpace=wrap;html=1;boundedLbl=1;backgroundOutline=1;darkOpacity=0.05;darkOpacity2=0.1;direction=east;flipH=1;size=30;labelBackgroundColor=none;fillColor=#647687;strokeColor=#314354;fontColor=#ffffff;" vertex="1" parent="1">
          <mxGeometry x="210" y="960" width="180" height="105" as="geometry" />
        </mxCell>
        <mxCell id="eVUaobwBK6fa_ifXyKKY-8" value="" style="shape=cube;whiteSpace=wrap;html=1;boundedLbl=1;backgroundOutline=1;darkOpacity=0.05;darkOpacity2=0.1;direction=east;flipH=1;size=30;labelBackgroundColor=none;fillColor=#647687;strokeColor=#314354;fontColor=#ffffff;" vertex="1" parent="1">
          <mxGeometry x="370" y="960" width="180" height="105" as="geometry" />
        </mxCell>
        <mxCell id="eVUaobwBK6fa_ifXyKKY-9" value="" style="shape=cube;whiteSpace=wrap;html=1;boundedLbl=1;backgroundOutline=1;darkOpacity=0.05;darkOpacity2=0.1;direction=east;flipH=1;size=80;labelBackgroundColor=none;fillColor=#f0a30a;strokeColor=#BD7000;fontColor=#000000;" vertex="1" parent="1">
          <mxGeometry x="530" y="800" width="190" height="250" as="geometry" />
        </mxCell>
        <mxCell id="eVUaobwBK6fa_ifXyKKY-10" value="" style="shape=cube;whiteSpace=wrap;html=1;boundedLbl=1;backgroundOutline=1;darkOpacity=0.05;darkOpacity2=0.1;direction=east;flipH=1;size=80;labelBackgroundColor=none;fillColor=#1ba1e2;strokeColor=#006EAF;fontColor=#ffffff;" vertex="1" parent="1">
          <mxGeometry x="660" y="800" width="190" height="250" as="geometry" />
        </mxCell>
        <mxCell id="eVUaobwBK6fa_ifXyKKY-11" value="" style="shape=cube;whiteSpace=wrap;html=1;boundedLbl=1;backgroundOutline=1;darkOpacity=0.05;darkOpacity2=0.1;direction=east;flipH=1;size=130;labelBackgroundColor=none;fillColor=#f0a30a;strokeColor=#BD7000;fontColor=#000000;" vertex="1" parent="1">
          <mxGeometry x="850" y="560" width="190" height="450" as="geometry" />
        </mxCell>
        <mxCell id="eVUaobwBK6fa_ifXyKKY-12" value="" style="shape=cube;whiteSpace=wrap;html=1;boundedLbl=1;backgroundOutline=1;darkOpacity=0.05;darkOpacity2=0.1;direction=east;flipH=1;size=130;labelBackgroundColor=none;fillColor=#1ba1e2;strokeColor=#006EAF;fontColor=#ffffff;" vertex="1" parent="1">
          <mxGeometry x="930" y="560" width="190" height="450" as="geometry" />
        </mxCell>
        <mxCell id="eVUaobwBK6fa_ifXyKKY-13" value="" style="shape=cube;whiteSpace=wrap;html=1;boundedLbl=1;backgroundOutline=1;darkOpacity=0.05;darkOpacity2=0.1;direction=east;flipH=1;size=220;labelBackgroundColor=none;fillColor=#f0a30a;strokeColor=#BD7000;fontColor=#000000;" vertex="1" parent="1">
          <mxGeometry x="1020" y="240" width="240" height="610" as="geometry" />
        </mxCell>
        <mxCell id="eVUaobwBK6fa_ifXyKKY-14" value="" style="shape=cube;whiteSpace=wrap;html=1;boundedLbl=1;backgroundOutline=1;darkOpacity=0.05;darkOpacity2=0.1;direction=east;flipH=1;size=220;labelBackgroundColor=none;fillColor=#1ba1e2;strokeColor=#006EAF;fontColor=#ffffff;" vertex="1" parent="1">
          <mxGeometry x="1070" y="240" width="240" height="610" as="geometry" />
        </mxCell>
        <mxCell id="eVUaobwBK6fa_ifXyKKY-15" value="Text" style="text;html=1;strokeColor=none;fillColor=none;align=center;verticalAlign=middle;whiteSpace=wrap;rounded=0;fontColor=#FFFFFF;" vertex="1" parent="1">
          <mxGeometry x="-150" y="180" width="60" height="30" as="geometry" />
        </mxCell>
        <mxCell id="eVUaobwBK6fa_ifXyKKY-18" value="Text" style="text;html=1;strokeColor=none;fillColor=none;align=center;verticalAlign=middle;whiteSpace=wrap;rounded=0;fontColor=#FFFFFF;" vertex="1" parent="1">
          <mxGeometry x="480" y="530" width="60" height="30" as="geometry" />
        </mxCell>
        <mxCell id="eVUaobwBK6fa_ifXyKKY-29" value="" style="shape=cube;whiteSpace=wrap;html=1;boundedLbl=1;backgroundOutline=1;darkOpacity=0.05;darkOpacity2=0.1;direction=east;flipH=1;size=220;labelBackgroundColor=none;fillColor=#fad9d5;strokeColor=#ae4132;" vertex="1" parent="1">
          <mxGeometry x="1120" y="240" width="220" height="610" as="geometry" />
        </mxCell>
        <mxCell id="eVUaobwBK6fa_ifXyKKY-36" value="" style="endArrow=classic;html=1;rounded=0;fillColor=#000000;strokeWidth=6;" edge="1" parent="1">
          <mxGeometry width="50" height="50" relative="1" as="geometry">
            <mxPoint x="-170" y="530" as="sourcePoint" />
            <mxPoint x="1020" y="540" as="targetPoint" />
          </mxGeometry>
        </mxCell>
        <mxCell id="eVUaobwBK6fa_ifXyKKY-37" value="" style="endArrow=classic;html=1;rounded=0;fillColor=#000000;strokeWidth=5;" edge="1" parent="1">
          <mxGeometry width="50" height="50" relative="1" as="geometry">
            <mxPoint x="-10" y="750" as="sourcePoint" />
            <mxPoint x="850" y="750" as="targetPoint" />
          </mxGeometry>
        </mxCell>
        <mxCell id="eVUaobwBK6fa_ifXyKKY-38" value="" style="endArrow=classic;html=1;rounded=0;fillColor=#000000;strokeWidth=5;" edge="1" parent="1">
          <mxGeometry width="50" height="50" relative="1" as="geometry">
            <mxPoint x="230" y="915" as="sourcePoint" />
            <mxPoint x="530" y="914.5799999999999" as="targetPoint" />
          </mxGeometry>
        </mxCell>
        <mxCell id="eVUaobwBK6fa_ifXyKKY-39" value="" style="rounded=0;whiteSpace=wrap;html=1;strokeColor=#006EAF;fontColor=#ffffff;fillColor=#1ba1e2;" vertex="1" parent="1">
          <mxGeometry x="380" y="220" width="80" height="30" as="geometry" />
        </mxCell>
        <mxCell id="eVUaobwBK6fa_ifXyKKY-40" value="&lt;font color=&quot;#000000&quot;&gt;&lt;span style=&quot;font-size: 27px;&quot;&gt;Warstwa splotowa&lt;/span&gt;&lt;/font&gt;" style="text;html=1;strokeColor=none;fillColor=none;align=center;verticalAlign=middle;whiteSpace=wrap;rounded=0;fontColor=#FFFFFF;" vertex="1" parent="1">
          <mxGeometry x="460" y="220" width="240" height="30" as="geometry" />
        </mxCell>
        <mxCell id="eVUaobwBK6fa_ifXyKKY-41" value="" style="rounded=0;whiteSpace=wrap;html=1;strokeColor=#2D7600;fontColor=#ffffff;fillColor=#60a917;" vertex="1" parent="1">
          <mxGeometry x="380" y="270" width="80" height="30" as="geometry" />
        </mxCell>
        <mxCell id="eVUaobwBK6fa_ifXyKKY-42" value="&lt;font style=&quot;font-size: 27px;&quot; color=&quot;#000000&quot;&gt;MaxPool&lt;/font&gt;" style="text;html=1;strokeColor=none;fillColor=none;align=center;verticalAlign=middle;whiteSpace=wrap;rounded=0;fontColor=#FFFFFF;" vertex="1" parent="1">
          <mxGeometry x="460" y="270" width="130" height="30" as="geometry" />
        </mxCell>
        <mxCell id="eVUaobwBK6fa_ifXyKKY-43" value="" style="rounded=0;whiteSpace=wrap;html=1;strokeColor=#314354;fontColor=#ffffff;fillColor=#647687;" vertex="1" parent="1">
          <mxGeometry x="380" y="320" width="80" height="30" as="geometry" />
        </mxCell>
        <mxCell id="eVUaobwBK6fa_ifXyKKY-44" value="&lt;font style=&quot;font-size: 27px;&quot; color=&quot;#000000&quot;&gt;Macierz ukryta&lt;/font&gt;" style="text;html=1;strokeColor=none;fillColor=none;align=center;verticalAlign=middle;whiteSpace=wrap;rounded=0;fontColor=#FFFFFF;" vertex="1" parent="1">
          <mxGeometry x="460" y="320" width="200" height="30" as="geometry" />
        </mxCell>
        <mxCell id="eVUaobwBK6fa_ifXyKKY-45" value="" style="rounded=0;whiteSpace=wrap;html=1;strokeColor=#C73500;fontColor=#000000;fillColor=#fa6800;" vertex="1" parent="1">
          <mxGeometry x="380" y="370" width="80" height="30" as="geometry" />
        </mxCell>
        <mxCell id="eVUaobwBK6fa_ifXyKKY-46" value="&lt;font style=&quot;font-size: 27px;&quot; color=&quot;#000000&quot;&gt;Interpolacja&lt;/font&gt;" style="text;html=1;strokeColor=none;fillColor=none;align=center;verticalAlign=middle;whiteSpace=wrap;rounded=0;fontColor=#FFFFFF;" vertex="1" parent="1">
          <mxGeometry x="460" y="370" width="170" height="30" as="geometry" />
        </mxCell>
        <mxCell id="eVUaobwBK6fa_ifXyKKY-47" value="" style="rounded=0;whiteSpace=wrap;html=1;strokeColor=#23445d;fillColor=#bac8d3;" vertex="1" parent="1">
          <mxGeometry x="380" y="420" width="80" height="30" as="geometry" />
        </mxCell>
        <mxCell id="eVUaobwBK6fa_ifXyKKY-48" value="&lt;font style=&quot;font-size: 27px;&quot; color=&quot;#000000&quot;&gt;Obraz wejściowy&lt;/font&gt;" style="text;html=1;strokeColor=none;fillColor=none;align=center;verticalAlign=middle;whiteSpace=wrap;rounded=0;fontColor=#FFFFFF;" vertex="1" parent="1">
          <mxGeometry x="460" y="420" width="230" height="30" as="geometry" />
        </mxCell>
        <mxCell id="eVUaobwBK6fa_ifXyKKY-49" value="" style="rounded=0;whiteSpace=wrap;html=1;strokeColor=#ae4132;fillColor=#fad9d5;" vertex="1" parent="1">
          <mxGeometry x="380" y="470" width="80" height="30" as="geometry" />
        </mxCell>
        <mxCell id="eVUaobwBK6fa_ifXyKKY-50" value="&lt;font style=&quot;font-size: 27px;&quot; color=&quot;#000000&quot;&gt;Obraz wyjściowy&lt;/font&gt;" style="text;html=1;strokeColor=none;fillColor=none;align=center;verticalAlign=middle;whiteSpace=wrap;rounded=0;fontColor=#FFFFFF;" vertex="1" parent="1">
          <mxGeometry x="460" y="470" width="230" height="30" as="geometry" />
        </mxCell>
        <mxCell id="eVUaobwBK6fa_ifXyKKY-51" value="" style="endArrow=classic;html=1;rounded=0;strokeColor=#23445D;strokeWidth=8;" edge="1" parent="1">
          <mxGeometry width="50" height="50" relative="1" as="geometry">
            <mxPoint x="380" y="190" as="sourcePoint" />
            <mxPoint x="460" y="190" as="targetPoint" />
          </mxGeometry>
        </mxCell>
        <mxCell id="eVUaobwBK6fa_ifXyKKY-52" value="&lt;font color=&quot;#000000&quot;&gt;&lt;span style=&quot;font-size: 27px;&quot;&gt;Połączenia pomijające&lt;/span&gt;&lt;/font&gt;" style="text;html=1;strokeColor=none;fillColor=none;align=center;verticalAlign=middle;whiteSpace=wrap;rounded=0;fontColor=#FFFFFF;" vertex="1" parent="1">
          <mxGeometry x="460" y="170" width="290" height="30" as="geometry" />
        </mxCell>
        <mxCell id="eVUaobwBK6fa_ifXyKKY-53" value="&lt;font style=&quot;font-size: 27px;&quot; color=&quot;#000000&quot;&gt;Obraz wyjściowy&lt;/font&gt;" style="text;html=1;strokeColor=none;fillColor=none;align=center;verticalAlign=middle;whiteSpace=wrap;rounded=0;fontColor=#FFFFFF;" vertex="1" parent="1">
          <mxGeometry x="1400" y="540" width="130" height="30" as="geometry" />
        </mxCell>
        <mxCell id="eVUaobwBK6fa_ifXyKKY-54" value="" style="endArrow=classic;html=1;rounded=0;strokeColor=#23445D;strokeWidth=8;" edge="1" parent="1">
          <mxGeometry width="50" height="50" relative="1" as="geometry">
            <mxPoint x="1290" y="555" as="sourcePoint" />
            <mxPoint x="1390" y="555" as="targetPoint" />
          </mxGeometry>
        </mxCell>
        <mxCell id="eVUaobwBK6fa_ifXyKKY-55" value="&lt;font style=&quot;font-size: 27px;&quot; color=&quot;#000000&quot;&gt;Obraz wejściowy&lt;/font&gt;" style="text;html=1;strokeColor=none;fillColor=none;align=center;verticalAlign=middle;whiteSpace=wrap;rounded=0;fontColor=#FFFFFF;" vertex="1" parent="1">
          <mxGeometry x="-580" y="560" width="130" height="30" as="geometry" />
        </mxCell>
        <mxCell id="eVUaobwBK6fa_ifXyKKY-56" value="" style="endArrow=classic;html=1;rounded=0;strokeColor=#23445D;strokeWidth=8;" edge="1" parent="1">
          <mxGeometry width="50" height="50" relative="1" as="geometry">
            <mxPoint x="-440" y="574.29" as="sourcePoint" />
            <mxPoint x="-340" y="574.29" as="targetPoint" />
          </mxGeometry>
        </mxCell>
        <mxCell id="eVUaobwBK6fa_ifXyKKY-57" style="edgeStyle=orthogonalEdgeStyle;rounded=0;orthogonalLoop=1;jettySize=auto;html=1;exitX=0.5;exitY=1;exitDx=0;exitDy=0;strokeColor=#23445D;" edge="1" parent="1" source="eVUaobwBK6fa_ifXyKKY-55" target="eVUaobwBK6fa_ifXyKKY-55">
          <mxGeometry relative="1" as="geometry" />
        </mxCell>
      </root>
    </mxGraphModel>
  </diagram>
</mxfile>
